A haunting ghost story spanning two worlds, two centuries apart. When 13 year old Tolly finds he can mysteriously travel between the two, he begins an adventure that unlocks family secrets laid buried for generations.
 
http://www.imdb.com/title/tt1031241/

Subtitles (srt) : Dutch.

From Time To Time speelt zich af in de negentiende eeuw, waar vrouwen die heel veel geld hadden, gevangen zaten in die rijkdom. Het verhaal volgt een 13-jarig jongetje, genaamd Tolly, dat tijdens een verblijf in het oude landhuis van zijn oma in aanraking komt met de geesten van enkele kinderen uit een ver verleden. Op mysterieuze wijze bevindt Tolly zich in twee werelden, die twee eeuwen gescheiden houdt. Hier legt hij familiegeheimen bloot, die generaties lang verborgen waren.
 
http://www.moviemeter.nl/film/58165

Ondertitels (srt) : Nederlands.

General
Complete name                    : From Time to Time-AC3-XviD-DVDRip[Eng]2009 2Lions-Team\From Time to Time-AC3-XviD-DVDRip[Eng]2009 2Lions-Team.avi
Format                           : AVI
Format/Info                      : Audio Video Interleave
File size                        : 1.36 GiB
Duration                         : 1h 31mn
Overall bit rate                 : 2 119 Kbps
Writing application              : VirtualDubMod 1.5.4.1 (build 2178/release)
Writing library                  : VirtualDubMod build 2178/release

Video
ID                               : 0
Format                           : MPEG-4 Visual
Format profile                   : Simple@L3
Format settings, BVOP            : No
Format settings, QPel            : No
Format settings, GMC             : No warppoints
Format settings, Matrix          : Default (H.263)
Codec ID                         : XVID
Codec ID/Hint                    : XviD
Duration                         : 1h 31mn
Bit rate                         : 1 661 Kbps
Width                            : 720 pixels
Height                           : 400 pixels
Display aspect ratio             : 16:9
Frame rate                       : 25.000 fps
Resolution                       : 8 bits
Colorimetry                      : 4:2:0
Scan type                        : Progressive
Bits/(Pixel*Frame)               : 0.231
Stream size                      : 1.07 GiB (78%)
Writing library                  : XviD 1.1.2 (UTC 2006-11-01)

Audio
ID                               : 1
Format                           : AC-3
Format/Info                      : Audio Coding 3
Codec ID                         : 2000
Duration                         : 1h 31mn
Bit rate mode                    : Constant
Bit rate                         : 448 Kbps
Channel(s)                       : 6 channels
Channel positions                : Front: L C R, Surround: L R, LFE
Sampling rate                    : 48.0 KHz
Stream size                      : 295 MiB (21%)
Alignment                        : Split accross interleaves
Interleave, duration             : 40 ms (1.00 video frame)
Interleave, preload duration     : 500 ms

Thanks to Just_4_fun_Team for the source.

Brought to you by Gollum

DON T HIT AND RUN Niet gelijk afhaken als de FILM binnen is blijf seeden. 

Don`t quit after you finished the download, but keep seeding

There are fake torrents from uploaders who use our team name.
Those are not ours, or members from our team.
We 2Lions-Team are not responsible for the fake posts on our name

Wij 2Lions-Team zijn niet verantwoordelijk voor die zieke FAKE posten die op onze naam worden gedaan

Please check our site !!!

to the fakers , get a life !!!